# xmcd CD database file generated by LOLA_Freedb v0.9beta0
# 
# Track frame offsets:
#      150
#      10991
#      25796
#      39805
#      59710
#      71229
#      84993
#      96513
#      115731
#      126260
#      138944
#      156386
# 
# Disc length: 2254 seconds
# 
# Revision: 0 
# Processed by: cddbd v1.5.2PL0 Copyright (c) Steve Scherf et al.
# Submitted via: LOLA_Freedb v0.9beta0
# 
DISCID=a208cc0c
DTITLE=TONE WATTUM - WILLIN´
DYEAR=1983
DGENRE=
TTITLE0=ALL I WANNA DO IN LIFE
TTITLE1=YOU WIN AGAIN
TTITLE2=WILLING
TTITLE3=THERE´S A RIVER
TTITLE4=DRINKIN´, DANCIN´
TTITLE5=RIDE ME DOWN EASY
TTITLE6=IF I COULD ONLY WIN YOUR LOVE
TTITLE7=THE OLD SWIMMIN´ HOLE
TTITLE8=FALLING IN LOVE
TTITLE9=FORGIVE ME
TTITLE10=SIN CITY
TTITLE11=WINTERWOOD
EXTD=
EXTT0=
EXTT1=
EXTT2=
EXTT3=
EXTT4=
EXTT5=
EXTT6=
EXTT7=
EXTT8=
EXTT9=
EXTT10=
EXTT11=
PLAYORDER=
